<?xml version="1.0" standalone="no"?><svg xmlns="http://www.w3.org/2000/svg" viewBox="0 0 1440 320"><path fill="#042D6D" fill-opacity="1" d="M0,256L10.9,234.7C21.8,213,44,171,65,154.7C87.3,139,109,149,131,144C152.7,139,175,117,196,133.3C218.2,149,240,203,262,218.7C283.6,235,305,213,327,202.7C349.1,192,371,192,393,176C414.5,160,436,128,458,101.3C480,75,502,53,524,74.7C545.5,96,567,160,589,181.3C610.9,203,633,181,655,186.7C676.4,192,698,224,720,245.3C741.8,267,764,277,785,245.3C807.3,213,829,139,851,133.3C872.7,128,895,192,916,197.3C938.2,203,960,149,982,133.3C1003.6,117,1025,139,1047,165.3C1069.1,192,1091,224,1113,208C1134.5,192,1156,128,1178,106.7C1200,85,1222,107,1244,133.3C1265.5,160,1287,192,1309,186.7C1330.9,181,1353,139,1375,133.3C1396.4,128,1418,160,1429,176L1440,192L1440,320L1429.1,320C1418.2,320,1396,320,1375,320C1352.7,320,1331,320,1309,320C1287.3,320,1265,320,1244,320C1221.8,320,1200,320,1178,320C1156.4,320,1135,320,1113,320C1090.9,320,1069,320,1047,320C1025.5,320,1004,320,982,320C960,320,938,320,916,320C894.5,320,873,320,851,320C829.1,320,807,320,785,320C763.6,320,742,320,720,320C698.2,320,676,320,655,320C632.7,320,611,320,589,320C567.3,320,545,320,524,320C501.8,320,480,320,458,320C436.4,320,415,320,393,320C370.9,320,349,320,327,320C305.5,320,284,320,262,320C240,320,218,320,196,320C174.5,320,153,320,131,320C109.1,320,87,320,65,320C43.6,320,22,320,11,320L0,320Z"></path></svg>