<?xml version="1.0" standalone="no"?><svg xmlns="http://www.w3.org/2000/svg" viewBox="0 0 1440 320"><path fill="#0099ff" fill-opacity="1" d="M0,128L10,122.7C20,117,40,107,60,133.3C80,160,100,224,120,224C140,224,160,160,180,133.3C200,107,220,117,240,112C260,107,280,85,300,96C320,107,340,149,360,149.3C380,149,400,107,420,112C440,117,460,171,480,208C500,245,520,267,540,229.3C560,192,580,96,600,90.7C620,85,640,171,660,202.7C680,235,700,213,720,213.3C740,213,760,235,780,224C800,213,820,171,840,133.3C860,96,880,64,900,48C920,32,940,32,960,58.7C980,85,1000,139,1020,138.7C1040,139,1060,85,1080,69.3C1100,53,1120,75,1140,96C1160,117,1180,139,1200,154.7C1220,171,1240,181,1260,192C1280,203,1300,213,1320,213.3C1340,213,1360,203,1380,208C1400,213,1420,235,1430,245.3L1440,256L1440,320L1430,320C1420,320,1400,320,1380,320C1360,320,1340,320,1320,320C1300,320,1280,320,1260,320C1240,320,1220,320,1200,320C1180,320,1160,320,1140,320C1120,320,1100,320,1080,320C1060,320,1040,320,1020,320C1000,320,980,320,960,320C940,320,920,320,900,320C880,320,860,320,840,320C820,320,800,320,780,320C760,320,740,320,720,320C700,320,680,320,660,320C640,320,620,320,600,320C580,320,560,320,540,320C520,320,500,320,480,320C460,320,440,320,420,320C400,320,380,320,360,320C340,320,320,320,300,320C280,320,260,320,240,320C220,320,200,320,180,320C160,320,140,320,120,320C100,320,80,320,60,320C40,320,20,320,10,320L0,320Z"></path></svg>